<svg xmlns="http://www.w3.org/2000/svg" xmlns:xlink="http://www.w3.org/1999/xlink" width="32.456" height="15.19" viewBox="0 0 32.456 15.19">
  <defs>
    <linearGradient id="linear-gradient" x1="0.118" y1="0.89" x2="0.588" y2="-0.027" gradientUnits="objectBoundingBox">
      <stop offset="0" stop-color="#00a886"/>
      <stop offset="0.054" stop-color="#06aa8c"/>
      <stop offset="1" stop-color="#77cbf2"/>
    </linearGradient>
  </defs>
  <path id="title_icon" d="M14.515,3.822A25.791,25.791,0,0,0,.7,15.19H5.253c1.529-3.506,7.925-10.024,16.3-12.459,0,0-12.281,3.88-12.647,12.459h9.838c-2.846-2.069-2.658-7.13.173-9.726,2.768-2.538,6.792-4.207,13.535-4.2A37.606,37.606,0,0,0,22.667,0C13.207.066,3.731,4.4,0,8.574A39.6,39.6,0,0,1,14.515,3.822" transform="translate(0 0)" fill="url(#linear-gradient)"/>
</svg>
