<?xml version="1.0" encoding="UTF-8"?>
<!-- Generated by Pixelmator Pro 3.5.5 -->
<svg width="2674" height="493" viewBox="0 0 2674 493" xmlns="http://www.w3.org/2000/svg">
    <g id="Group">
        <g id="g1">
            <linearGradient id="linearGradient1" x1="525.784167" y1="22.880417" x2="525.784167" y2="184.827917" gradientUnits="userSpaceOnUse">
                <stop offset="0" stop-color="#76cbf1" stop-opacity="1"/>
                <stop offset="0.994413" stop-color="#00a786" stop-opacity="1"/>
            </linearGradient>
            <path id="Path" fill="url(#linearGradient1)" stroke="none" d="M 231.913086 62.797607 C 80.970215 111.945923 11.995605 243.720093 11.995605 243.720093 L 84.506836 243.720093 C 108.847656 187.921997 210.631348 84.174194 343.999512 45.430298 C 343.999512 45.430298 148.548828 107.180786 142.708984 243.720093 L 299.28418 243.720093 C 253.995605 210.785767 256.987305 130.24292 302.040039 88.924438 C 346.088379 48.526611 410.134766 21.967896 517.450684 22.10083 C 516.873535 21.966309 447.095703 1.387573 361.646484 1.973267 C 211.090332 3.006592 60.276367 71.938354 0.893555 138.415283 C 115.791504 72.879028 231.913086 62.797607 231.913086 62.797607 Z"/>
            <linearGradient id="linearGradient2" x1="690.844167" y1="545.869167" x2="331.860417" y2="288.970833" gradientUnits="userSpaceOnUse">
                <stop offset="0" stop-color="#76cbf1" stop-opacity="1"/>
                <stop offset="0.994413" stop-color="#004d9f" stop-opacity="1"/>
            </linearGradient>
            <path id="path1" fill="url(#linearGradient2)" stroke="none" d="M 399.820313 149.702515 L 359.908691 149.702515 L 368.383789 104.322632 L 505.652344 104.322632 L 497.178223 149.702515 L 457.539063 149.702515 L 428.561035 306.62085 L 370.843262 306.62085 L 399.820313 149.702515 Z"/>
            <linearGradient id="linearGradient3" x1="767.559167" y1="438.668333" x2="408.576667" y2="181.770833" gradientUnits="userSpaceOnUse">
                <stop offset="0" stop-color="#76cbf1" stop-opacity="1"/>
                <stop offset="0.994413" stop-color="#004d9f" stop-opacity="1"/>
            </linearGradient>
            <path id="path2" fill="url(#linearGradient3)" stroke="none" d="M 644.672363 239.643677 C 640.298828 263.154175 656.837891 269.458862 663.395996 269.308228 C 679.669922 268.934204 686.643066 257.65918 688.283203 248.365845 C 690.198242 237.702026 680.619629 229.70459 651.916016 216.582764 C 638.794434 210.841187 606.834473 193.911499 613.669922 155.912598 C 621.324219 115.179443 661.756348 100.496704 695.656738 100.496704 C 723.540527 100.496704 760.172852 114.710815 751.970703 163.372559 L 705.084473 163.372559 C 705.357422 156.537964 699.707031 141.621704 683.851074 141.725464 C 673.411621 141.794189 665.516602 149.840332 665.311035 159.544189 C 665.085938 170.213623 673.411621 175.799072 701.943848 187.702026 C 725.007324 197.322388 742.677246 222.147949 738.302734 245.658447 C 732.288086 277.915527 709.324219 310.449219 655.742188 310.449219 C 602.708008 310.449219 585.206543 279.282959 593.681641 239.643677 L 644.672363 239.643677 Z"/>
            <linearGradient id="linearGradient4" x1="856.856667" y1="313.892083" x2="497.87" y2="56.992083" gradientUnits="userSpaceOnUse">
                <stop offset="0" stop-color="#76cbf1" stop-opacity="1"/>
                <stop offset="0.994413" stop-color="#004d9f" stop-opacity="1"/>
            </linearGradient>
            <path id="path3" fill="url(#linearGradient4)" stroke="none" d="M 597.174805 54.754639 C 593.122559 69.878662 577.57666 82.13916 562.453125 82.13916 C 547.32959 82.13916 538.354492 69.878662 542.406738 54.754639 C 546.458496 39.631226 562.004883 27.371216 577.128418 27.371216 C 592.251465 27.371216 601.227539 39.631226 597.174805 54.754639 Z"/>
            <linearGradient id="linearGradient5" x1="858.845833" y1="576.481667" x2="354.095" y2="215.26875" gradientUnits="userSpaceOnUse">
                <stop offset="0" stop-color="#76cbf1" stop-opacity="1"/>
                <stop offset="0.994413" stop-color="#004d9f" stop-opacity="1"/>
            </linearGradient>
            <path id="path4" fill="url(#linearGradient5)" stroke="none" d="M 655.322266 85.161133 C 639.534668 83.351685 623.64502 84.293457 607.884277 85.872925 C 588.858398 87.780273 570.021973 91.88623 551.781738 97.535767 C 540.65625 100.981934 532.398438 110.376831 530.27832 121.82959 C 530.27832 121.82959 529.068848 128.362793 527.605957 136.26709 C 527.605957 136.26709 527.60498 136.26709 527.60498 136.267456 L 527.280762 138.022461 C 525.095215 149.823364 522.517578 163.750732 522.51709 163.752075 L 522.51709 163.752075 L 496.068359 306.62085 L 527.775391 306.62085 C 542.848145 306.62085 555.774414 295.868286 558.518066 281.047852 L 583.721191 144.918823 C 594.211426 88.260986 645.641113 86.865601 655.322266 85.161133 Z"/>
            <linearGradient id="linearGradient6" x1="820.954167" y1="364.0575" x2="461.97" y2="107.159167" gradientUnits="userSpaceOnUse">
                <stop offset="0" stop-color="#76cbf1" stop-opacity="1"/>
                <stop offset="0.994413" stop-color="#004d9f" stop-opacity="1"/>
            </linearGradient>
            <path id="path5" fill="url(#linearGradient6)" stroke="none" d="M 802.326172 239.643677 C 797.952637 263.154175 814.492188 269.458862 821.050293 269.308228 C 837.32373 268.934204 844.296875 257.65918 845.9375 248.365845 C 847.852539 237.702026 838.273438 229.70459 809.570801 216.582764 C 796.44873 210.841187 764.48877 193.911499 771.32373 155.912598 C 778.978027 115.179443 819.410645 100.496704 853.310547 100.496704 C 881.194336 100.496704 917.827148 114.710815 909.625 163.372559 L 862.738281 163.372559 C 863.01123 156.537964 857.361328 141.621704 841.505859 141.725464 C 831.06543 141.794189 823.170898 149.840332 822.965332 159.544189 C 822.740234 170.213623 831.06543 175.799072 859.597656 187.702026 C 882.661133 197.322388 900.331055 222.147949 895.956543 245.658447 C 889.942871 277.915527 866.979004 310.449219 813.395996 310.449219 C 760.362305 310.449219 742.86084 279.282959 751.335938 239.643677 L 802.326172 239.643677 Z"/>
            <clipPath id="clipPath1">
                <path d="M 231.913086 62.797607 C 80.970215 111.945923 11.995605 243.720093 11.995605 243.720093 L 84.506836 243.720093 C 108.847656 187.921997 210.631348 84.174194 343.999512 45.430298 C 343.999512 45.430298 148.548828 107.180786 142.708984 243.720093 L 299.28418 243.720093 C 253.995605 210.785767 256.987305 130.24292 302.040039 88.924438 C 346.088379 48.526611 410.134766 21.967896 517.450684 22.10083 C 516.873535 21.966309 447.095703 1.387573 361.646484 1.973267 C 211.090332 3.006592 60.276367 71.938354 0.893555 138.415283 C 115.791504 72.879028 231.913086 62.797607 231.913086 62.797607 Z"/>
            </clipPath>
            <g id="g2" clip-path="url(#clipPath1)">
                <linearGradient id="linearGradient7" x1="518.693333" y1="-161.639167" x2="533.564125" y2="223.355833" gradientUnits="userSpaceOnUse">
                    <stop offset="0.237668" stop-color="#fefefe" stop-opacity="1"/>
                    <stop offset="1" stop-color="#fefefe" stop-opacity="0"/>
                </linearGradient>
                <path id="path6" fill="url(#linearGradient7)" stroke="none" d="M 517.450684 22.10083 C 517.450684 22.10083 133.119141 -4.599731 45.992188 369.123413 L 330.262695 315.253052 L 517.450684 22.10083 Z"/>
            </g>
            <clipPath id="clipPath2">
                <path d="M 909.624998 163.372559 C 917.827146 114.710815 881.194334 100.496704 853.310545 100.496704 C 819.410642 100.496704 778.977539 115.179443 771.32373 155.912598 C 764.488769 193.911499 796.448732 210.841187 809.570802 216.582764 C 838.273435 229.70459 847.852537 237.702515 845.937498 248.365845 C 844.296873 257.65918 837.323728 268.934204 821.050291 269.308228 C 814.492185 269.458862 797.952638 263.154175 802.326173 239.643677 L 751.335937 239.643677 C 742.86084 279.282959 760.362304 310.449219 813.395994 310.449219 C 866.979002 310.449219 889.942869 277.91626 895.956541 245.658447 C 900.331052 222.147949 882.661131 197.322388 859.597654 187.702026 C 831.065427 175.799072 822.740232 170.213623 822.96533 159.544189 C 823.170896 149.840332 831.065427 141.794189 841.505857 141.725464 C 857.361326 141.621704 863.011228 156.537964 862.738767 163.372559 L 909.624998 163.372559 Z"/>
            </clipPath>
            <g id="g3" clip-path="url(#clipPath2)">
                <linearGradient id="linearGradient8" x1="931.654167" y1="-95.34875" x2="1011.927917" y2="164.484167" gradientUnits="userSpaceOnUse">
                    <stop offset="0.237668" stop-color="#fefefe" stop-opacity="1"/>
                    <stop offset="1" stop-color="#fefefe" stop-opacity="0"/>
                </linearGradient>
                <path id="path7" fill="url(#linearGradient8)" stroke="none" opacity="0.7" d="M 982.749023 98.269165 C 982.749023 98.269165 525.484375 15.259155 222.951172 491.215332 L 769.091309 491.215332 L 982.749023 98.269165 Z"/>
            </g>
        </g>
        <g id="g4">
            <g id="g5">
                <path id="path8" fill="#231916" stroke="none" d="M 2326.297852 120.765747 L 2306.986816 120.765747 L 2306.986816 38.068726 L 2326.297852 38.068726 L 2326.297852 120.765747 Z"/>
                <path id="path9" fill="#231916" stroke="none" d="M 2456.183594 120.765747 L 2436.873047 120.765747 L 2436.873047 38.068726 L 2456.183594 38.068726 L 2456.183594 120.765747 Z"/>
                <path id="path10" fill="#231916" stroke="none" d="M 2306.986816 47.724243 L 2306.986816 38.068726 L 2456.183594 38.068726 L 2456.183594 47.724243 L 2306.986816 47.724243 Z"/>
                <path id="path11" fill="#231916" stroke="none" d="M 2306.986816 115.064331 L 2306.986816 105.408325 L 2430.056152 105.408325 L 2430.056152 115.064331 L 2306.986816 115.064331 Z"/>
                <path id="path12" fill="#231916" stroke="none" d="M 2395.066895 181.126709 L 2368.104492 181.126709 L 2368.104492 8.842041 L 2395.066895 8.842041 L 2395.066895 181.126709 Z"/>
            </g>
            <g id="g6">
                <path id="path13" fill="#231916" stroke="none" d="M 1690.297852 121.231079 L 1670.986816 121.231079 L 1670.986816 62.134155 L 1690.297852 62.134155 L 1690.297852 121.231079 Z"/>
                <path id="path14" fill="#231916" stroke="none" d="M 1760.166504 121.231079 L 1740.855469 121.231079 L 1740.855469 62.134155 L 1760.166504 62.134155 L 1760.166504 121.231079 Z"/>
                <path id="path15" fill="#231916" stroke="none" d="M 1670.986816 71.789551 L 1670.986816 62.134155 L 1760.166504 62.134155 L 1760.166504 71.789551 L 1670.986816 71.789551 Z"/>
                <path id="path16" fill="#231916" stroke="none" d="M 1684.446777 93.659546 L 1684.446777 84.003784 L 1746.706055 84.003784 L 1746.706055 93.659546 L 1684.446777 93.659546 Z"/>
                <path id="path17" fill="#231916" stroke="none" d="M 1670.986816 115.529175 L 1670.986816 105.873657 L 1734.038574 105.873657 L 1734.038574 115.529175 L 1670.986816 115.529175 Z"/>
                <path id="path18" fill="#231916" stroke="none" d="M 1672.798828 50.174561 L 1672.798828 40.518799 L 1758.353516 40.518799 L 1758.353516 50.174561 L 1672.798828 50.174561 Z"/>
                <path id="path19" fill="#231916" stroke="none" d="M 1674.83252 33.012939 L 1674.83252 23.357422 L 1756.319824 12.904175 L 1756.319824 22.559937 L 1674.83252 33.012939 Z"/>
                <path id="path20" fill="#231916" stroke="none" d="M 1761.302246 59.830078 L 1761.302246 50.174561 L 1834.247559 50.174561 L 1834.247559 59.830078 L 1761.302246 59.830078 Z"/>
                <path id="path21" fill="#231916" stroke="none" d="M 1674.83252 140.911133 L 1674.83252 131.255371 L 1756.319824 131.255371 L 1756.319824 140.911133 L 1674.83252 140.911133 Z"/>
                <path id="path22" fill="#231916" stroke="none" d="M 1664.742676 168.801147 L 1664.742676 159.145386 L 1766.409668 159.145386 L 1766.409668 168.801147 L 1664.742676 168.801147 Z"/>
                <path id="path23" fill="#231916" stroke="none" d="M 1725.232422 162.029541 L 1705.920898 162.029541 L 1705.920898 22.95874 L 1725.232422 22.95874 L 1725.232422 162.029541 Z"/>
                <path id="path24" fill="#231916" stroke="none" d="M 1814.936523 116.419312 L 1834.247559 116.419312 L 1834.247559 50.174561 L 1814.936523 50.174561 L 1814.936523 116.419312 Z"/>
                <path id="path25" fill="#231916" stroke="none" d="M 1789.487793 181.139893 C 1789.487793 181.139893 1814.936523 157.20166 1814.936523 116.782227 L 1824.592285 100.374146 L 1834.247559 116.782227 C 1834.247559 133.276123 1829.184082 147.217896 1823.574219 157.603027 C 1816.811035 170.124146 1803.720215 181.139893 1789.487793 181.139893 L 1789.487793 181.139893 Z"/>
                <path id="path26" fill="#231916" stroke="none" d="M 1778.473145 119.999268 L 1797.78418 119.999268 L 1797.78418 13.924438 L 1778.473145 13.924438 L 1778.473145 119.999268 Z"/>
                <path id="path27" fill="#231916" stroke="none" d="M 1745.145508 181.126709 C 1745.145508 181.126709 1778.473145 157.20166 1778.473145 119.999268 L 1788.128906 103.590942 L 1797.78418 119.999268 C 1797.78418 136.493286 1792.720703 145.167114 1787.11084 155.551147 C 1780.347656 168.072876 1759.376953 181.126709 1745.145508 181.126709 L 1745.145508 181.126709 Z"/>
            </g>
            <g id="g7">
                <path id="path28" fill="#231916" stroke="none" d="M 1882.618164 34.177246 L 1882.618164 24.52124 L 1948.621582 14.068604 L 1948.621582 23.723633 L 1882.618164 34.177246 Z"/>
                <path id="path29" fill="#231916" stroke="none" d="M 1942.154785 145.725098 L 1942.154785 136.069336 L 2045.015625 122.038818 L 2045.015625 131.69458 L 1942.154785 145.725098 Z"/>
                <path id="path30" fill="#231916" stroke="none" d="M 1875.644043 71.789551 L 1875.644043 62.134155 L 1955.595703 62.134155 L 1955.595703 71.789551 L 1875.644043 71.789551 Z"/>
                <path id="path31" fill="#231916" stroke="none" d="M 1998.34668 37.305054 C 1996.257324 45.101685 1988.243652 51.421631 1980.447266 51.421631 C 1972.651367 51.421631 1968.023926 45.101685 1970.112793 37.305054 C 1972.202148 29.508789 1980.21582 23.188843 1988.012695 23.188843 C 1995.809082 23.188843 2000.436035 29.508789 1998.34668 37.305054 Z"/>
                <path id="path32" fill="#231916" stroke="none" d="M 2012.006836 181.139893 L 2031.317871 181.139893 L 2031.317871 16.218384 L 2012.006836 16.218384 L 2012.006836 181.139893 Z"/>
                <path id="path33" fill="#231916" stroke="none" d="M 1903.361816 181.126709 L 1922.672852 181.126709 L 1922.672852 66.901733 L 1903.361816 66.901733 L 1903.361816 181.126709 Z"/>
                <path id="path34" fill="#231916" stroke="none" d="M 1903.361816 71.789551 L 1922.672852 71.789551 L 1922.672852 26.086792 L 1903.361816 26.086792 L 1903.361816 71.789551 Z"/>
                <path id="path35" fill="#231916" stroke="none" d="M 1870.033691 145.73877 C 1870.033691 145.73877 1903.361816 118.453247 1903.361816 76.02417 L 1922.67334 76.02417 C 1922.67334 94.835693 1917.609863 104.727539 1912.000488 116.570801 C 1905.236328 130.851563 1884.266113 145.73877 1870.033691 145.73877 L 1870.033691 145.73877 Z"/>
                <path id="path36" fill="#231916" stroke="none" d="M 1922.672852 76.02417 C 1922.672852 76.02417 1940.188965 95.783325 1940.188965 126.509644 L 1958.537598 126.509644 C 1958.537598 112.887085 1955.143066 102.914185 1952.194824 97.146606 C 1947.199219 87.373413 1931.131348 76.02417 1922.672852 76.02417 L 1922.672852 76.02417 Z"/>
                <path id="path37" fill="#231916" stroke="none" d="M 1963.828613 56.85791 C 1963.828613 56.85791 1983.888184 77.273315 1983.888184 109.018799 L 2004.902344 109.018799 C 2004.902344 100.282593 2000.938477 84.507568 1997.638184 78.681274 C 1988.009277 61.685547 1973.515137 56.85791 1963.828613 56.85791 L 1963.828613 56.85791 Z"/>
            </g>
            <g id="g8">
                <path id="path38" fill="#231916" stroke="none" d="M 2510.076172 103.871216 L 2529.387695 103.871216 L 2529.387695 54.506226 L 2510.076172 54.506226 L 2510.076172 103.871216 Z"/>
                <path id="path39" fill="#231916" stroke="none" d="M 2566.325684 146.494141 L 2566.325684 38.068726 L 2547.014648 38.068726 L 2547.014648 158.485718 C 2547.014648 170.98999 2557.150879 181.126709 2569.655762 181.126709 L 2638.943359 181.126709 L 2638.943359 169.135132 L 2588.966797 169.135132 C 2576.462402 169.135132 2566.325684 158.998657 2566.325684 146.494141 Z"/>
                <path id="path40" fill="#231916" stroke="none" d="M 2484.62793 168.592163 C 2484.62793 168.592163 2510.076172 144.654175 2510.076172 104.234619 L 2519.731934 87.826294 L 2529.387695 104.234619 C 2529.387695 120.728394 2524.32373 134.670776 2518.714355 145.05542 C 2511.950195 157.577026 2498.859863 168.592163 2484.62793 168.592163 L 2484.62793 168.592163 Z"/>
                <path id="path41" fill="#231916" stroke="none" d="M 2563.077148 12.834229 C 2563.077148 12.834229 2591.099121 32.797607 2591.099121 82.61499 L 2614.701172 82.61499 C 2614.701172 68.708374 2611.092773 51.483154 2603.647949 39.950317 C 2589.856934 18.588257 2571.535645 12.834229 2563.077148 12.834229 L 2563.077148 12.834229 Z"/>
                <path id="path42" fill="#231916" stroke="none" d="M 2632.504395 51.561279 C 2632.504395 51.561279 2651.75 65.397949 2651.75 139.723755 L 2670.996094 139.723755 C 2670.996094 124.958374 2667.535645 98.294922 2664.652832 88.447632 C 2656.245117 59.72168 2637.725586 51.561279 2632.504395 51.561279 L 2632.504395 51.561279 Z"/>
            </g>
            <g id="g9">
                <path id="path43" fill="#231916" stroke="none" d="M 1529.910645 123.392578 L 1510.599121 123.392578 L 1510.599121 64.295532 L 1529.910645 64.295532 L 1529.910645 123.392578 Z"/>
                <path id="path44" fill="#231916" stroke="none" d="M 1612.518555 123.392578 L 1593.207031 123.392578 L 1593.207031 64.295532 L 1612.518555 64.295532 L 1612.518555 123.392578 Z"/>
                <path id="path45" fill="#231916" stroke="none" d="M 1510.599121 73.951294 L 1510.599121 64.295532 L 1612.518555 64.295532 L 1612.518555 73.951294 L 1510.599121 73.951294 Z"/>
                <path id="path46" fill="#231916" stroke="none" d="M 1521.169434 95.820923 L 1521.169434 86.165405 L 1596.168457 86.165405 L 1596.168457 95.820923 L 1521.169434 95.820923 Z"/>
                <path id="path47" fill="#231916" stroke="none" d="M 1510.599121 117.690796 L 1510.599121 108.035034 L 1586.390625 108.035034 L 1586.390625 117.690796 L 1510.599121 117.690796 Z"/>
                <path id="path48" fill="#231916" stroke="none" d="M 1548.548828 178.595825 L 1548.548828 165.395874 L 1623.193848 165.395874 L 1623.193848 178.595825 L 1548.548828 178.595825 Z"/>
                <path id="path49" fill="#231916" stroke="none" d="M 1495.693359 25.874146 L 1495.693359 16.218384 L 1623.193848 16.218384 L 1623.193848 25.874146 L 1495.693359 25.874146 Z"/>
                <path id="path50" fill="#231916" stroke="none" d="M 1520.091797 52.10376 L 1520.091797 42.447998 L 1598.794922 42.447998 L 1598.794922 52.10376 L 1520.091797 52.10376 Z"/>
                <path id="path51" fill="#231916" stroke="none" d="M 1498.773926 140.911133 L 1498.773926 131.255371 L 1620.112793 131.255371 L 1620.112793 140.911133 L 1498.773926 140.911133 Z"/>
                <path id="path52" fill="#231916" stroke="none" d="M 1515.004395 54.664673 L 1495.693359 54.664673 L 1495.693359 16.218384 L 1515.004395 16.218384 L 1515.004395 54.664673 Z"/>
                <path id="path53" fill="#231916" stroke="none" d="M 1623.193848 54.664673 L 1603.882813 54.664673 L 1603.882813 16.218384 L 1623.193848 16.218384 L 1623.193848 54.664673 Z"/>
                <path id="path54" fill="#231916" stroke="none" d="M 1569.099121 159.694946 L 1549.788086 159.694946 L 1549.788086 33.012939 L 1569.099121 33.012939 L 1569.099121 159.694946 Z"/>
                <path id="path55" fill="#231916" stroke="none" d="M 1456.750977 22.95874 C 1458.840332 30.754883 1466.853516 37.075073 1474.650391 37.075073 C 1482.446777 37.075073 1487.073242 30.754883 1484.984375 22.95874 C 1482.89502 15.162231 1474.881836 8.842041 1467.084961 8.842041 C 1459.288574 8.842041 1454.661621 15.162231 1456.750977 22.95874 Z"/>
                <g id="g10">
                    <path id="path56" fill="#231916" stroke="none" d="M 1460.056641 106.523682 L 1460.056641 96.868408 L 1493.24707 96.868408 L 1493.24707 106.523682 L 1460.056641 106.523682 Z"/>
                    <path id="path57" fill="#231916" stroke="none" d="M 1473.936523 119.635376 L 1493.24707 119.635376 L 1493.24707 96.868408 L 1473.936523 96.868408 L 1473.936523 119.635376 Z"/>
                    <path id="path58" fill="#231916" stroke="none" d="M 1448.487793 181.126709 C 1448.487793 181.126709 1473.936523 155.598267 1473.936523 119.999268 L 1483.591797 103.590942 L 1493.24707 119.999268 C 1493.24707 136.493286 1488.184082 150.434937 1482.574707 160.820068 C 1475.810547 173.341187 1462.719727 181.126709 1448.487793 181.126709 L 1448.487793 181.126709 Z"/>
                </g>
                <path id="path59" fill="#231916" stroke="none" d="M 1452.36084 59.679932 L 1452.36084 50.02417 L 1489.374512 50.02417 L 1489.374512 59.679932 L 1452.36084 59.679932 Z"/>
                <path id="path60" fill="#231916" stroke="none" d="M 1470.063477 66.49707 L 1489.374512 66.49707 L 1489.374512 50.02417 L 1470.063477 50.02417 L 1470.063477 66.49707 Z"/>
                <path id="path61" fill="#231916" stroke="none" d="M 1444.614746 110.987915 C 1444.614746 110.987915 1470.063477 92.517944 1470.063477 66.760254 L 1479.71875 54.888184 L 1489.374512 66.760254 C 1489.374512 78.694458 1484.311035 88.782104 1478.701172 96.295776 C 1471.9375 105.355835 1458.847168 110.987915 1444.614746 110.987915 L 1444.614746 110.987915 Z"/>
                <path id="path62" fill="#231916" stroke="none" d="M 1558.367188 178.595825 L 1548.548828 165.395874 C 1504.993652 165.395874 1487.612305 149.869629 1487.612305 149.869629 C 1487.612305 149.869629 1501.378418 178.595825 1548.548828 178.595825 L 1558.367188 178.595825 Z"/>
            </g>
            <g id="g11">
                <path id="path63" fill="#231916" stroke="none" d="M 1053.841309 181.126709 L 1034.529785 181.126709 L 1034.529785 16.218384 L 1053.841309 16.218384 L 1053.841309 181.126709 Z"/>
                <path id="path64" fill="#231916" stroke="none" d="M 1083.324219 115.694458 L 1064.012695 115.694458 L 1064.012695 70.624634 L 1083.324219 70.624634 L 1083.324219 115.694458 Z"/>
                <path id="path65" fill="#231916" stroke="none" d="M 1115.988281 115.694458 L 1096.677246 115.694458 L 1096.677246 70.624634 L 1115.988281 70.624634 L 1115.988281 115.694458 Z"/>
                <path id="path66" fill="#231916" stroke="none" d="M 1141.733887 93.951782 L 1122.422363 93.951782 L 1122.422363 31.943359 L 1141.733887 31.943359 L 1141.733887 93.951782 Z"/>
                <path id="path67" fill="#231916" stroke="none" d="M 1034.529785 25.874146 L 1034.529785 16.218384 L 1192.106934 16.218384 L 1192.106934 25.874146 L 1034.529785 25.874146 Z"/>
                <path id="path68" fill="#231916" stroke="none" d="M 1061.343262 59.340454 L 1061.343262 49.684692 L 1169.19043 49.684692 L 1169.19043 59.340454 L 1061.343262 59.340454 Z"/>
                <path id="path69" fill="#231916" stroke="none" d="M 1061.343262 146.73877 L 1061.343262 137.083008 L 1118.614746 127.427979 L 1118.614746 137.083008 L 1061.343262 146.73877 Z"/>
                <path id="path70" fill="#231916" stroke="none" d="M 1064.012695 80.280396 L 1064.012695 70.624634 L 1115.988281 70.624634 L 1115.988281 80.280396 L 1064.012695 80.280396 Z"/>
                <path id="path71" fill="#231916" stroke="none" d="M 1064.012695 115.694458 L 1064.012695 106.039185 L 1115.988281 106.039185 L 1115.988281 115.694458 L 1064.012695 115.694458 Z"/>
                <path id="path72" fill="#231916" stroke="none" d="M 1034.529785 171.685303 L 1034.529785 162.029541 L 1169.875977 162.029541 L 1169.875977 171.685303 L 1034.529785 171.685303 Z"/>
                <path id="path73" fill="#231916" stroke="none" d="M 1196.004395 181.126709 L 1176.692383 181.126709 L 1176.692383 16.218384 L 1196.004395 16.218384 L 1196.004395 181.126709 Z"/>
                <path id="path74" fill="#231916" stroke="none" d="M 1168.827637 39.356323 C 1167.314941 43.449951 1161.513672 46.769287 1155.870117 46.769287 C 1150.225098 46.769287 1146.876465 43.449951 1148.388672 39.356323 C 1149.900879 35.262085 1155.702637 31.943359 1161.346191 31.943359 C 1166.990234 31.943359 1170.339844 35.262085 1168.827637 39.356323 Z"/>
                <path id="path75" fill="#231916" stroke="none" d="M 1169.630371 155.960449 C 1169.630371 155.960449 1141.733887 146.000488 1141.733887 93.951782 L 1132.077637 55.585083 L 1122.422363 93.951782 C 1122.422363 146.000488 1147.871094 155.960449 1147.871094 155.960449 L 1169.630371 155.960449 Z"/>
                <path id="path76" fill="#231916" stroke="none" d="M 1152.287598 88.791992 L 1167.029297 88.791992 C 1167.029297 88.791992 1167.756836 137.242188 1106.393555 156.521606 C 1106.393555 156.521606 1143.646484 139.937134 1152.287598 88.791992 Z"/>
            </g>
            <g id="g12">
                <path id="path77" fill="#231916" stroke="none" d="M 1089.473145 232.094849 L 1089.473145 243.52832 C 1082.381348 242.99707 1075.326172 242.730469 1069.050293 242.730469 C 1068.979004 249.432129 1068.944336 256.895752 1068.944336 265.119995 C 1068.944336 277.882446 1069.139648 289.956665 1069.529297 301.337036 L 1054.638672 301.337036 C 1055.098145 290.063232 1055.329102 277.989258 1055.329102 265.119995 C 1055.329102 257.0354 1055.258301 249.574097 1055.117676 242.730469 C 1050.118164 242.730469 1043.257813 243.015137 1034.535645 243.581177 L 1034.535645 232.094849 L 1089.473145 232.094849 Z"/>
                <path id="path78" fill="#231916" stroke="none" d="M 1137.490723 301.284058 L 1133.959961 301.708252 C 1126.970215 301.708252 1124.088867 298.874512 1124.088867 297.666992 L 1123.397949 297.666992 C 1119.49707 301.001343 1114.232422 302.66626 1107.603027 302.66626 C 1103.169922 302.66626 1099.492188 301.433838 1096.566895 298.971313 C 1093.64209 296.505737 1092.179688 293.235107 1092.179688 289.158691 C 1092.179688 283.768311 1094.45752 279.356689 1099.013184 275.915283 C 1103.568848 272.476807 1111.555176 270.650024 1122.972168 270.438721 C 1123.042969 269.800903 1123.078613 269.198608 1123.078613 268.629272 C 1123.078613 264.802124 1122.15625 262.276245 1120.3125 261.05127 C 1118.46875 259.828735 1115.08252 259.21582 1110.155762 259.21582 C 1104.80127 259.21582 1099.572754 259.927979 1094.466797 261.343384 L 1094.466797 251.558716 C 1099.288086 249.891968 1107.265137 249.05835 1116.058594 249.05835 C 1122.475098 249.05835 1127.430664 250.408203 1130.922363 253.102173 C 1134.414551 255.795288 1136.162109 260.512085 1136.162109 267.246582 C 1136.162109 268.73584 1136.099609 271.447754 1135.975098 275.384521 C 1135.850586 279.318848 1135.789551 281.943848 1135.789551 283.255005 C 1135.789551 290.594482 1136.356445 296.604492 1137.490723 301.284058 Z M 1123.291504 290.220947 C 1123.078613 285.435547 1122.972168 281.305786 1122.972168 277.831543 C 1110.881348 277.831543 1104.836914 280.897095 1104.836914 287.031616 C 1104.836914 291.250366 1107.496094 293.359741 1112.814453 293.359741 C 1116.99707 293.359741 1120.490723 292.31543 1123.291504 290.220947 Z"/>
                <path id="path79" fill="#231916" stroke="none" d="M 1309.626953 301.284058 L 1306.096191 301.708252 C 1299.106934 301.708252 1296.225098 298.874512 1296.225098 297.666992 L 1295.53418 297.666992 C 1291.632813 301.001343 1286.368164 302.66626 1279.739258 302.66626 C 1275.306152 302.66626 1271.628418 301.433838 1268.703125 298.971313 C 1265.777832 296.505737 1264.315918 293.235107 1264.315918 289.158691 C 1264.315918 283.768311 1266.594238 279.356689 1271.149414 275.915283 C 1275.705078 272.476807 1283.691406 270.650024 1295.10791 270.438721 C 1295.179688 269.800903 1295.214844 269.198608 1295.214844 268.629272 C 1295.214844 264.802124 1294.29248 262.276245 1292.44873 261.05127 C 1290.60498 259.828735 1287.218262 259.21582 1282.291992 259.21582 C 1276.937012 259.21582 1271.708496 259.927979 1266.603027 261.343384 L 1266.603027 251.558716 C 1271.424316 249.891968 1279.401367 249.05835 1288.194336 249.05835 C 1294.611328 249.05835 1299.567383 250.408203 1303.059082 253.102173 C 1306.550781 255.795288 1308.297852 260.512085 1308.297852 267.246582 C 1308.297852 268.73584 1308.23584 271.447754 1308.111328 275.384521 C 1307.986816 279.318848 1307.925781 281.943848 1307.925781 283.255005 C 1307.925781 290.594482 1308.492188 296.604492 1309.626953 301.284058 Z M 1295.427246 290.220947 C 1295.214844 285.435547 1295.10791 281.305786 1295.10791 277.831543 C 1283.018066 277.831543 1276.973145 280.897095 1276.973145 287.031616 C 1276.973145 291.250366 1279.632813 293.359741 1284.950684 293.359741 C 1289.133301 293.359741 1292.626953 292.31543 1295.427246 290.220947 Z"/>
                <path id="path80" fill="#231916" stroke="none" d="M 1164.716309 301.337036 L 1150.410156 301.337036 C 1150.90625 293.997559 1151.154297 285.578003 1151.154297 276.075562 C 1151.154297 266.644653 1150.552246 256.842041 1149.345703 249.749512 L 1164.662598 249.749512 C 1164.20166 256.628784 1163.97168 265.404053 1163.97168 276.075562 C 1163.97168 285.189087 1164.219727 293.608643 1164.716309 301.337036 Z M 1167.162598 234.75293 C 1167.162598 237.164673 1166.337402 239.27417 1164.689453 241.080811 C 1163.041504 242.890503 1160.745605 243.794556 1157.802734 243.794556 C 1155.320801 243.794556 1153.379395 243.015137 1151.979004 241.45459 C 1150.578125 239.894165 1149.878906 238.015747 1149.878906 235.817505 C 1149.878906 233.406372 1150.703125 231.314087 1152.351074 229.540283 C 1154.000488 227.769287 1156.313477 226.882446 1159.291992 226.882446 C 1161.809082 226.882446 1163.749512 227.651978 1165.115234 229.194946 C 1166.47998 230.737915 1167.162598 232.590576 1167.162598 234.75293 Z"/>
                <path id="path81" fill="#231916" stroke="none" d="M 1256.821777 250.814087 C 1256.821777 252.834839 1253.871582 261.132813 1247.967773 275.701904 C 1242.064453 290.274658 1239.112793 298.820801 1239.112793 301.337036 L 1226.722168 301.337036 C 1226.722168 299.705322 1225.26709 294.689209 1222.361328 286.286987 C 1218.745117 275.79126 1216.439941 268.647583 1215.447266 264.852905 L 1214.596191 264.852905 C 1213.67334 268.507446 1211.476074 275.562622 1208.000977 286.020508 C 1205.200684 294.317383 1203.799805 299.423828 1203.799805 301.337036 L 1191.35498 301.337036 C 1191.35498 299.174561 1188.545898 290.551514 1182.926758 275.463379 C 1177.306152 260.377563 1174.49707 252.161255 1174.49707 250.814087 L 1189.813965 250.814087 C 1189.813965 252.268066 1191.364258 258.357544 1194.467285 269.081665 C 1197.568848 279.806274 1199.120117 286.18042 1199.120117 288.200928 L 1199.918457 288.200928 C 1199.918457 285.756226 1201.691406 279.399658 1205.23584 269.135376 C 1208.781738 258.870728 1210.554199 252.763428 1210.554199 250.814087 L 1223.051758 250.814087 C 1223.051758 252.161255 1224.780762 258.278687 1228.236816 269.16333 C 1231.694336 280.047974 1233.422852 286.393799 1233.422852 288.200928 L 1234.166992 288.200928 C 1234.166992 286.21582 1235.736816 280.179932 1238.874023 270.092773 C 1242.010742 260.006226 1243.580566 253.579468 1243.580566 250.814087 L 1256.821777 250.814087 Z"/>
                <path id="path82" fill="#231916" stroke="none" d="M 1369.825684 301.337036 L 1355.679199 301.337036 C 1356.45752 292.368408 1356.849121 283.290894 1356.849121 274.108643 C 1356.849121 268.543335 1356.024902 264.766724 1354.375488 262.779297 C 1352.727051 260.794067 1350.219238 259.800781 1346.850098 259.800781 C 1342.808105 259.800781 1338.979492 261.185791 1335.36377 263.951172 C 1335.539551 277.778442 1335.628906 290.241577 1335.628906 301.337036 L 1321.32373 301.337036 C 1321.961426 290.241577 1322.280273 281.519165 1322.280273 275.171265 C 1322.280273 266.697998 1321.411133 257.009888 1319.674316 249.492188 C 1319.674316 249.492188 1330.472168 247.652466 1334.192871 255.335571 L 1334.192871 255.335571 L 1335.043945 255.335571 C 1339.900879 251.152588 1345.485352 249.05835 1351.796875 249.05835 C 1357.256348 249.05835 1361.625977 250.343628 1364.905273 252.913696 C 1368.185547 255.48584 1369.825684 260.227539 1369.825684 267.140015 C 1369.825684 268.169434 1369.779785 269.544556 1369.691895 271.262207 C 1369.603027 272.982788 1369.558594 274.746704 1369.558594 276.553345 C 1369.558594 281.341553 1369.647461 289.600952 1369.825684 301.337036 Z"/>
                <path id="path83" fill="#231916" stroke="none" d="M 2559.84668 301.337036 L 2545.699707 301.337036 C 2546.479004 292.368408 2546.870117 283.290894 2546.870117 274.108643 C 2546.870117 268.543335 2546.045898 264.766724 2544.395996 262.779297 C 2542.748047 260.794067 2540.240234 259.800781 2536.871582 259.800781 C 2532.829102 259.800781 2529.000488 261.185791 2525.384766 263.951172 C 2525.560547 277.778442 2525.649902 290.241577 2525.649902 301.337036 L 2511.344727 301.337036 C 2511.982422 290.241577 2512.30127 281.519165 2512.30127 275.171265 C 2512.30127 266.697998 2511.432129 257.009888 2509.695313 249.492188 C 2509.695313 249.492188 2520.492676 247.652466 2524.213867 255.335571 L 2524.213867 255.335571 L 2525.064941 255.335571 C 2529.922363 251.152588 2535.506348 249.05835 2541.817871 249.05835 C 2547.276855 249.05835 2551.646973 250.343628 2554.92627 252.913696 C 2558.206543 255.48584 2559.84668 260.227539 2559.84668 267.140015 C 2559.84668 268.169434 2559.800781 269.544556 2559.713379 271.262207 C 2559.624023 272.982788 2559.57959 274.746704 2559.57959 276.553345 C 2559.57959 281.341553 2559.668457 289.600952 2559.84668 301.337036 Z"/>
                <path id="path84" fill="#231916" stroke="none" d="M 1487.834473 301.337036 L 1473.687988 301.337036 C 1474.466797 292.368408 1474.858887 283.290894 1474.858887 274.108643 C 1474.858887 268.543335 1474.033691 264.766724 1472.384277 262.779297 C 1470.736328 260.794067 1468.228027 259.800781 1464.859375 259.800781 C 1460.817383 259.800781 1456.98877 261.185791 1453.372559 263.951172 C 1453.548828 277.778442 1453.638184 290.241577 1453.638184 301.337036 L 1439.33252 301.337036 C 1439.970215 290.241577 1440.289063 281.519165 1440.289063 275.171265 C 1440.289063 266.697998 1439.419922 257.009888 1437.683594 249.492188 C 1437.683594 249.492188 1448.481934 247.652466 1452.202637 255.335571 L 1452.202637 255.335571 L 1453.053711 255.335571 C 1457.910156 251.152588 1463.494629 249.05835 1469.806152 249.05835 C 1475.265137 249.05835 1479.635254 250.343628 1482.914551 252.913696 C 1486.194336 255.48584 1487.834473 260.227539 1487.834473 267.140015 C 1487.834473 268.169434 1487.788574 269.544556 1487.701172 271.262207 C 1487.612305 272.982788 1487.567383 274.746704 1487.567383 276.553345 C 1487.567383 281.341553 1487.657227 289.600952 1487.834473 301.337036 Z"/>
                <path id="path85" fill="#231916" stroke="none" d="M 1424.286133 301.337036 L 1409.236328 301.337036 C 1409.696777 290.345337 1409.927246 278.274048 1409.927246 265.119995 C 1409.927246 252.179321 1409.696777 241.169556 1409.236328 232.094849 L 1424.286133 232.094849 C 1423.825195 241.027832 1423.594727 252.036621 1423.594727 265.119995 C 1423.594727 278.487427 1423.825195 290.559204 1424.286133 301.337036 Z"/>
                <path id="path86" fill="#231916" stroke="none" d="M 1537.714355 286.818237 C 1537.714355 297.453857 1529.841797 302.772827 1514.100586 302.772827 C 1508.356934 302.772827 1503.339355 302.152832 1499.050781 300.912476 L 1499.050781 290.434082 C 1503.481445 292.030396 1509.703613 292.828735 1514.100586 292.828735 C 1518.355469 292.828735 1521.306641 292.4729 1522.95459 291.763306 C 1524.604004 291.054565 1525.428711 289.86792 1525.428711 288.200928 C 1525.428711 285.61377 1522.450684 283.148193 1516.493164 280.807495 C 1511.282227 278.751709 1507.488281 276.731689 1505.112793 274.746704 C 1501.850098 271.981323 1500.219727 268.596191 1500.219727 264.588745 C 1500.219727 259.874512 1501.974609 256.080444 1505.485352 253.20874 C 1508.995117 250.336792 1514.100586 248.900879 1520.800781 248.900879 C 1527.077148 248.900879 1532.004883 249.449463 1535.585449 250.547852 L 1535.585449 261.079224 C 1531.578613 259.518799 1525.445313 258.738281 1520.800781 258.738281 C 1515.128906 258.738281 1512.29248 260.192139 1512.29248 263.099243 C 1512.29248 264.588745 1512.894531 265.785767 1514.100586 266.687866 C 1515.305176 267.592407 1517.770508 268.73584 1521.492676 270.118774 C 1526.633789 271.999146 1530.374512 273.930908 1532.713867 275.915283 C 1536.046387 278.751709 1537.714355 282.385864 1537.714355 286.818237 Z"/>
                <path id="path87" fill="#231916" stroke="none" d="M 1580.680176 291.392578 L 1580.680176 300.859619 C 1578.198242 301.921631 1574.173828 302.452881 1570.416504 302.452881 C 1564.672852 302.452881 1560.346191 300.894531 1557.44043 297.773804 C 1554.532227 294.65332 1553.079102 288.645508 1553.079102 279.745483 C 1553.079102 274.390747 1553.113281 268.329956 1553.185059 261.556519 C 1551.376465 261.556519 1548.930176 261.663818 1545.84668 261.877441 L 1545.84668 251.399292 C 1548.575684 251.612427 1551.48291 251.719238 1553.82373 251.719238 C 1553.85791 249.838257 1554.000488 243.349976 1554.249512 235.337158 L 1566.853516 235.337158 C 1566.321289 242.39502 1566.055176 247.853394 1566.055176 251.719238 C 1569.033691 251.719238 1573.482422 251.577026 1579.403809 251.29248 L 1579.403809 261.877441 C 1574.015137 261.663818 1569.210449 261.556519 1565.842285 261.556519 C 1565.771484 266.273315 1565.736328 271.219238 1565.736328 276.395752 C 1565.736328 282.705688 1566.374023 286.934937 1567.649902 289.077026 C 1568.927246 291.224487 1571.177246 292.297363 1574.404785 292.297363 C 1576.354004 292.297363 1578.446777 291.994507 1580.680176 291.392578 Z"/>
                <path id="path88" fill="#231916" stroke="none" d="M 2278.80957 286.818237 C 2278.80957 297.453857 2270.937012 302.772827 2255.195313 302.772827 C 2249.45166 302.772827 2244.43457 302.152832 2240.145508 300.912476 L 2240.145508 290.434082 C 2244.57666 292.030396 2250.799316 292.828735 2255.195313 292.828735 C 2259.450195 292.828735 2262.401367 292.4729 2264.049316 291.763306 C 2265.699219 291.054565 2266.523926 289.86792 2266.523926 288.200928 C 2266.523926 285.61377 2263.54541 283.148193 2257.588379 280.807495 C 2252.377441 278.751709 2248.58252 276.731689 2246.208008 274.746704 C 2242.944824 271.981323 2241.314941 268.596191 2241.314941 264.588745 C 2241.314941 259.874512 2243.069824 256.080444 2246.580078 253.20874 C 2250.090332 250.336792 2255.195313 248.900879 2261.895996 248.900879 C 2268.171875 248.900879 2273.099609 249.449463 2276.680176 250.547852 L 2276.680176 261.079224 C 2272.673828 259.518799 2266.539551 258.738281 2261.895996 258.738281 C 2256.223633 258.738281 2253.387207 260.192139 2253.387207 263.099243 C 2253.387207 264.588745 2253.989258 265.785767 2255.195313 266.687866 C 2256.400391 267.592407 2258.865234 268.73584 2262.587402 270.118774 C 2267.729004 271.999146 2271.469238 273.930908 2273.808594 275.915283 C 2277.14209 278.751709 2278.80957 282.385864 2278.80957 286.818237 Z"/>
                <path id="path89" fill="#231916" stroke="none" d="M 2232.757324 291.392578 L 2232.757324 300.859619 C 2230.275391 301.921631 2226.251465 302.452881 2222.493652 302.452881 C 2216.75 302.452881 2212.42334 300.894531 2209.517578 297.773804 C 2206.609375 294.65332 2205.156738 288.645508 2205.156738 279.745483 C 2205.156738 274.390747 2205.19043 268.329956 2205.262207 261.556519 C 2203.453613 261.556519 2201.006836 261.663818 2197.92334 261.877441 L 2197.92334 251.399292 C 2200.65332 251.612427 2203.560547 251.719238 2205.900879 251.719238 C 2205.935547 249.838257 2206.077148 243.349976 2206.32666 235.337158 L 2218.930176 235.337158 C 2218.398438 242.39502 2218.132324 247.853394 2218.132324 251.719238 C 2221.111328 251.719238 2225.55957 251.577026 2231.480469 251.29248 L 2231.480469 261.877441 C 2226.092285 261.663818 2221.287109 261.556519 2217.918945 261.556519 C 2217.848633 266.273315 2217.813965 271.219238 2217.813965 276.395752 C 2217.813965 282.705688 2218.451172 286.934937 2219.727539 289.077026 C 2221.003906 291.224487 2223.254883 292.297363 2226.482422 292.297363 C 2228.431641 292.297363 2230.523926 291.994507 2232.757324 291.392578 Z"/>
                <path id="path90" fill="#231916" stroke="none" d="M 1651.13623 291.392578 L 1651.13623 300.859619 C 1648.654785 301.921631 1644.630859 302.452881 1640.873535 302.452881 C 1635.129883 302.452881 1630.802734 300.894531 1627.896973 297.773804 C 1624.989746 294.65332 1623.536133 288.645508 1623.536133 279.745483 C 1623.536133 274.390747 1623.570313 268.329956 1623.641602 261.556519 C 1621.833496 261.556519 1619.387207 261.663818 1616.303223 261.877441 L 1616.303223 251.399292 C 1619.032715 251.612427 1621.939941 251.719238 1624.280762 251.719238 C 1624.314453 249.838257 1624.457031 243.349976 1624.706055 235.337158 L 1637.310059 235.337158 C 1636.777832 242.39502 1636.512207 247.853394 1636.512207 251.719238 C 1639.490723 251.719238 1643.939453 251.577026 1649.86084 251.29248 L 1649.86084 261.877441 C 1644.472168 261.663818 1639.666992 261.556519 1636.298828 261.556519 C 1636.228027 266.273315 1636.193359 271.219238 1636.193359 276.395752 C 1636.193359 282.705688 1636.831055 286.934937 1638.106934 289.077026 C 1639.384277 291.224487 1641.634277 292.297363 1644.862305 292.297363 C 1646.811035 292.297363 1648.903809 291.994507 1651.13623 291.392578 Z"/>
                <path id="path91" fill="#231916" stroke="none" d="M 1753.343262 291.392578 L 1753.343262 300.859619 C 1750.861328 301.921631 1746.836914 302.452881 1743.079102 302.452881 C 1737.336426 302.452881 1733.009277 300.894531 1730.103516 297.773804 C 1727.196289 294.65332 1725.742676 288.645508 1725.742676 279.745483 C 1725.742676 274.390747 1725.776367 268.329956 1725.847656 261.556519 C 1724.039551 261.556519 1721.593262 261.663818 1718.509766 261.877441 L 1718.509766 251.399292 C 1721.239258 251.612427 1724.146484 251.719238 1726.486816 251.719238 C 1726.520996 249.838257 1726.663086 243.349976 1726.912598 235.337158 L 1739.516602 235.337158 C 1738.984375 242.39502 1738.718262 247.853394 1738.718262 251.719238 C 1741.697266 251.719238 1746.145508 251.577026 1752.066895 251.29248 L 1752.066895 261.877441 C 1746.678223 261.663818 1741.873535 261.556519 1738.504883 261.556519 C 1738.434082 266.273315 1738.399414 271.219238 1738.399414 276.395752 C 1738.399414 282.705688 1739.037598 286.934937 1740.312988 289.077026 C 1741.590332 291.224487 1743.840332 292.297363 1747.068359 292.297363 C 1749.017578 292.297363 1751.109863 291.994507 1753.343262 291.392578 Z"/>
                <path id="path92" fill="#231916" stroke="none" d="M 1605.671387 301.337036 L 1591.364746 301.337036 C 1591.861816 293.997559 1592.109375 285.578003 1592.109375 276.075562 C 1592.109375 266.644653 1591.506836 256.842041 1590.30127 249.749512 L 1605.618164 249.749512 C 1605.156738 256.628784 1604.927246 265.404053 1604.927246 276.075562 C 1604.927246 285.189087 1605.174316 293.608643 1605.671387 301.337036 Z M 1608.117188 234.75293 C 1608.117188 237.164673 1607.291992 239.27417 1605.644531 241.080811 C 1603.996094 242.890503 1601.700195 243.794556 1598.757324 243.794556 C 1596.276367 243.794556 1594.333984 243.015137 1592.933594 241.45459 C 1591.533691 239.894165 1590.833496 238.015747 1590.833496 235.817505 C 1590.833496 233.406372 1591.658203 231.314087 1593.305664 229.540283 C 1594.955078 227.769287 1597.268066 226.882446 1600.246582 226.882446 C 1602.763672 226.882446 1604.704102 227.651978 1606.070313 229.194946 C 1607.43457 230.737915 1608.117188 232.590576 1608.117188 234.75293 Z"/>
                <path id="path93" fill="#231916" stroke="none" d="M 1708.569336 301.284058 L 1706.758301 301.572998 C 1697.795898 302.296997 1695.286621 299.707031 1695.273926 297.170044 C 1695.273926 297.158813 1695.273926 297.147461 1695.273926 297.135742 L 1694.422363 297.135742 C 1689.77832 300.966187 1684.354004 302.879639 1678.149414 302.879639 C 1672.29834 302.879639 1667.893066 301.345093 1664.933594 298.279663 C 1661.973145 295.212646 1660.492676 289.087524 1660.492676 279.905762 C 1660.492676 278.805298 1660.519531 277.265015 1660.572754 275.278076 C 1660.626465 273.292847 1660.652832 271.554565 1660.652832 270.065918 C 1660.652832 266.131592 1660.314941 259.322388 1659.641113 250.70752 L 1674.479004 250.70752 C 1673.912598 257.515747 1673.629395 263.968506 1673.629395 270.065918 C 1673.629395 278.751709 1674.275879 284.602173 1675.569824 287.615723 C 1676.864746 290.630371 1679.406738 292.137207 1683.201172 292.137207 C 1687.350098 292.137207 1690.930664 291.143311 1693.945313 289.158691 C 1693.945313 270.510376 1693.731934 257.373413 1693.305664 250.70752 L 1707.666016 250.70752 C 1707.310547 257.40918 1707.133789 266.095825 1707.133789 276.766724 C 1707.133789 284.67334 1707.612793 292.846191 1708.569336 301.284058 Z"/>
                <path id="path94" fill="#231916" stroke="none" d="M 1809.446777 270.650024 C 1809.446777 272.459473 1809.339844 274.817505 1809.12793 277.724976 L 1774.876953 278.309692 C 1775.374023 282.317383 1777.093262 285.649658 1780.036133 288.307495 C 1782.979004 290.965332 1786.843262 292.297363 1791.629883 292.297363 C 1796.948242 292.297363 1802.603516 291.499146 1808.595215 289.902832 L 1808.595215 300.221558 C 1803.702637 301.992798 1796.576172 302.879639 1789.343262 302.879639 C 1780.196777 302.879639 1773.185059 300.310059 1768.310547 295.169067 C 1763.435059 290.028442 1760.997559 283.839233 1760.997559 276.606567 C 1760.997559 269.056763 1763.310547 262.504639 1767.938477 256.956787 C 1772.564941 251.40918 1778.990723 248.633667 1787.215332 248.633667 C 1794.731934 248.633667 1800.316406 250.671753 1803.968262 254.748291 C 1807.619141 258.827026 1809.446777 264.128662 1809.446777 270.650024 Z M 1797.000977 270.172485 C 1797.000977 262.019165 1793.525391 257.94043 1786.577637 257.94043 C 1779.947266 257.94043 1776.012207 262.159302 1774.771484 270.599121 L 1797.000977 270.172485 Z"/>
                <path id="path95" fill="#231916" stroke="none" d="M 2440.142578 301.337036 L 2425.836426 301.337036 C 2426.333496 293.997559 2426.581055 285.578003 2426.581055 276.075562 C 2426.581055 266.644653 2425.979004 256.842041 2424.772949 249.749512 L 2440.089844 249.749512 C 2439.628418 256.628784 2439.398438 265.404053 2439.398438 276.075562 C 2439.398438 285.189087 2439.645996 293.608643 2440.142578 301.337036 Z M 2442.588867 234.75293 C 2442.588867 237.164673 2441.764648 239.27417 2440.116211 241.080811 C 2438.468262 242.890503 2436.172363 243.794556 2433.229492 243.794556 C 2430.747559 243.794556 2428.805664 243.015137 2427.40625 241.45459 C 2426.005371 239.894165 2425.304688 238.015747 2425.304688 235.817505 C 2425.304688 233.406372 2426.129883 231.314087 2427.77832 229.540283 C 2429.426758 227.769287 2431.739746 226.882446 2434.71875 226.882446 C 2437.235352 226.882446 2439.175781 227.651978 2440.541992 229.194946 C 2441.907227 230.737915 2442.588867 232.590576 2442.588867 234.75293 Z"/>
                <path id="path96" fill="#231916" stroke="none" d="M 2500.288086 270.650024 C 2500.288086 272.459473 2500.181641 274.817505 2499.969238 277.724976 L 2465.71875 278.309692 C 2466.21582 282.317383 2467.935059 285.649658 2470.87793 288.307495 C 2473.820801 290.965332 2477.68457 292.297363 2482.47168 292.297363 C 2487.789551 292.297363 2493.445801 291.499146 2499.437012 289.902832 L 2499.437012 300.221558 C 2494.544434 301.992798 2487.416992 302.879639 2480.184082 302.879639 C 2471.038086 302.879639 2464.026855 300.310059 2459.151367 295.169067 C 2454.276855 290.028442 2451.838867 283.839233 2451.838867 276.606567 C 2451.838867 269.056763 2454.152344 262.504639 2458.779785 256.956787 C 2463.406738 251.40918 2469.832031 248.633667 2478.057617 248.633667 C 2485.573242 248.633667 2491.157715 250.671753 2494.810059 254.748291 C 2498.460449 258.827026 2500.288086 264.128662 2500.288086 270.650024 Z M 2487.843262 270.172485 C 2487.843262 262.019165 2484.367676 257.94043 2477.419434 257.94043 C 2470.789551 257.94043 2466.853516 262.159302 2465.61377 270.599121 L 2487.843262 270.172485 Z"/>
                <path id="path97" fill="#231916" stroke="none" d="M 2670.19043 270.650024 C 2670.19043 272.459473 2670.083984 274.817505 2669.871582 277.724976 L 2635.621582 278.309692 C 2636.118164 282.317383 2637.836914 285.649658 2640.779785 288.307495 C 2643.722656 290.965332 2647.587402 292.297363 2652.373535 292.297363 C 2657.692383 292.297363 2663.347656 291.499146 2669.339355 289.902832 L 2669.339355 300.221558 C 2664.446777 301.992798 2657.319336 302.879639 2650.086914 302.879639 C 2640.94043 302.879639 2633.928711 300.310059 2629.054199 295.169067 C 2624.178711 290.028442 2621.741699 283.839233 2621.741699 276.606567 C 2621.741699 269.056763 2624.054199 262.504639 2628.682129 256.956787 C 2633.308594 251.40918 2639.734863 248.633667 2647.959961 248.633667 C 2655.475586 248.633667 2661.060547 250.671753 2664.712402 254.748291 C 2668.362793 258.827026 2670.19043 264.128662 2670.19043 270.650024 Z M 2657.745117 270.172485 C 2657.745117 262.019165 2654.27002 257.94043 2647.321289 257.94043 C 2640.691406 257.94043 2636.755859 262.159302 2635.515625 270.599121 L 2657.745117 270.172485 Z"/>
                <path id="path98" fill="#231916" stroke="none" d="M 1896.135254 274.90625 C 1896.135254 283.839233 1893.387207 290.825684 1887.892578 295.860352 C 1882.395508 300.894531 1875.92627 303.410889 1868.47998 303.410889 C 1861.389648 303.410889 1855.30957 301.115723 1850.239746 296.523804 C 1845.168457 291.933716 1842.634277 285.471191 1842.634277 277.137573 C 1842.634277 268.169434 1845.399414 261.149902 1850.930664 256.080444 C 1856.461914 251.010498 1862.950195 248.474121 1870.395508 248.474121 C 1877.450195 248.474121 1883.504395 250.786133 1888.557129 255.414185 C 1893.609863 260.042114 1896.135254 266.538086 1896.135254 274.90625 Z M 1882.254883 276.5 C 1882.254883 271.361328 1881.04834 267.043823 1878.638184 263.551636 C 1876.226074 260.059937 1873.088867 258.314087 1869.224609 258.314087 C 1865.466309 258.314087 1862.40918 259.943481 1860.051758 263.205811 C 1857.693359 266.466553 1856.513672 270.545532 1856.513672 275.4375 C 1856.513672 280.579224 1857.719727 284.894165 1860.130371 288.386353 C 1862.54248 291.880859 1865.679688 293.626709 1869.543457 293.626709 C 1873.302246 293.626709 1876.359375 291.994507 1878.718262 288.731689 C 1881.075195 285.471191 1882.254883 281.394531 1882.254883 276.5 Z"/>
                <path id="path99" fill="#231916" stroke="none" d="M 1940.910156 225.87085 L 1940.910156 235.337158 C 1938.888672 234.841675 1934.899902 234.592529 1932.773438 234.592529 C 1930.220215 234.592529 1928.465332 235.764648 1927.507813 238.102539 C 1926.550293 240.442993 1926.072266 244.982178 1926.072266 251.719238 C 1929.227539 251.719238 1933.570801 251.577026 1939.102051 251.29248 L 1939.102051 261.877441 C 1933.570801 261.663818 1928.944824 261.556519 1926.072266 261.556519 C 1926.072266 274.924561 1926.337891 288.182861 1926.869141 301.337036 L 1912.829102 301.337036 C 1913.362305 288.360352 1913.626953 275.099487 1913.626953 261.556519 C 1911.534668 261.556519 1908.432617 261.663818 1904.320801 261.877441 L 1904.320801 251.345337 C 1908.078125 251.594604 1911.464844 251.719238 1913.626953 251.719238 C 1913.626953 233.883667 1919.618164 224.96875 1931.602539 224.96875 C 1935.183105 224.96875 1938.285156 225.268311 1940.910156 225.87085 Z"/>
                <path id="path100" fill="#231916" stroke="none" d="M 2019.835449 282.457031 C 2019.835449 296.320435 2009.871582 303.250488 1989.946289 303.250488 C 1983.174805 303.250488 1976.880859 302.435059 1971.067871 300.805664 L 1971.067871 288.945313 C 1976.812012 290.932495 1984.842285 291.923828 1989.946289 291.923828 C 1995.618652 291.923828 1999.696289 291.374512 2002.179688 290.274658 C 2004.659668 289.17627 2005.900879 287.331177 2005.900879 284.744629 C 2005.900879 282.050415 2004.731934 279.781128 2002.391113 277.936401 C 2000.370605 276.307007 1996.275391 274.179688 1990.106934 271.554565 C 1984.504395 269.145508 1980.338867 266.520508 1977.609375 263.684082 C 1974.168945 260.102905 1972.450195 255.688843 1972.450195 250.441284 C 1972.450195 244.344116 1974.710449 239.576294 1979.230469 236.135376 C 1983.751465 232.697144 1990.24707 230.976196 1998.72168 230.976196 C 2005.669434 230.976196 2011.503418 231.563843 2016.21875 232.73291 L 2016.21875 244.539917 C 2011.432617 242.80127 2004.287109 241.932007 1998.72168 241.932007 C 1990.353516 241.932007 1986.171387 244.166382 1986.171387 248.633667 C 1986.171387 251.010498 1987.145508 252.94165 1989.096191 254.431152 C 1990.797363 255.706543 1994.501953 257.498169 2000.210938 259.800781 C 2006.273438 262.248291 2010.811523 264.941772 2013.825195 267.884644 C 2017.831055 271.821655 2019.835449 276.677979 2019.835449 282.457031 Z"/>
                <path id="path101" fill="#231916" stroke="none" d="M 2362.719727 282.457031 C 2362.719727 296.320435 2352.755859 303.250488 2332.830566 303.250488 C 2326.059082 303.250488 2319.765137 302.435059 2313.95166 300.805664 L 2313.95166 288.945313 C 2319.696289 290.932495 2327.726563 291.923828 2332.830566 291.923828 C 2338.50293 291.923828 2342.580566 291.374512 2345.063477 290.274658 C 2347.543945 289.17627 2348.785156 287.331177 2348.785156 284.744629 C 2348.785156 282.050415 2347.616211 279.781128 2345.275391 277.936401 C 2343.254883 276.307007 2339.15918 274.179688 2332.990723 271.554565 C 2327.388184 269.145508 2323.223145 266.520508 2320.493164 263.684082 C 2317.053711 260.102905 2315.334473 255.688843 2315.334473 250.441284 C 2315.334473 244.344116 2317.595215 239.576294 2322.114746 236.135376 C 2326.63623 232.697144 2333.131836 230.976196 2341.605957 230.976196 C 2348.554688 230.976196 2354.387695 231.563843 2359.103027 232.73291 L 2359.103027 244.539917 C 2354.316406 242.80127 2347.171875 241.932007 2341.605957 241.932007 C 2333.238281 241.932007 2329.055664 244.166382 2329.055664 248.633667 C 2329.055664 251.010498 2330.030273 252.94165 2331.980469 254.431152 C 2333.681641 255.706543 2337.38623 257.498169 2343.095215 259.800781 C 2349.157227 262.248291 2353.695313 264.941772 2356.708984 267.884644 C 2360.715332 271.821655 2362.719727 276.677979 2362.719727 282.457031 Z"/>
                <path id="path102" fill="#231916" stroke="none" d="M 2083.064453 273.895264 C 2083.064453 281.588013 2080.864746 288.343384 2076.469727 294.157959 C 2072.073242 299.972534 2066.062988 302.879639 2058.441406 302.879639 C 2052.768066 302.879639 2048.867676 301.672363 2046.740723 299.263306 L 2046.103027 299.263306 C 2046.103027 307.949829 2046.226563 316.740479 2046.475586 325.640381 L 2032.010254 325.640381 C 2032.648438 315.4646 2032.966797 303.730835 2032.966797 290.434082 C 2032.966797 273.275024 2032.044434 258.702393 2030.20166 249.696167 L 2043.815918 249.696167 L 2044.61377 254.270752 L 2045.465332 254.270752 C 2049.258301 250.76123 2054.416992 249.004883 2060.940918 249.004883 C 2067.748047 249.004883 2073.137207 251.462646 2077.10791 256.372437 C 2081.079102 261.282349 2083.064453 267.122437 2083.064453 273.895264 Z M 2068.918457 275.278076 C 2068.918457 270.809937 2067.80127 266.965088 2065.567383 263.737061 C 2063.333496 260.512085 2060.249023 258.898682 2056.313965 258.898682 C 2051.420898 258.898682 2047.839844 260.334106 2045.570313 263.205811 C 2046.103027 273.168213 2046.368652 282.297119 2046.368652 290.594482 C 2048.602539 292.33252 2051.492188 293.199463 2055.037109 293.199463 C 2059.752441 293.199463 2063.244629 291.453369 2065.513672 287.96167 C 2067.783203 284.469971 2068.918457 280.240967 2068.918457 275.278076 Z"/>
                <path id="path103" fill="#231916" stroke="none" d="M 2145.867188 274.90625 C 2145.867188 283.839233 2143.118652 290.825684 2137.624512 295.860352 C 2132.126953 300.894531 2125.658203 303.410889 2118.211914 303.410889 C 2111.12207 303.410889 2105.041016 301.115723 2099.971191 296.523804 C 2094.899902 291.933716 2092.365723 285.471191 2092.365723 277.137573 C 2092.365723 268.169434 2095.131348 261.149902 2100.662598 256.080444 C 2106.193848 251.010498 2112.681641 248.474121 2120.126465 248.474121 C 2127.181641 248.474121 2133.236328 250.786133 2138.288574 255.414185 C 2143.34082 260.042114 2145.867188 266.538086 2145.867188 274.90625 Z M 2131.986328 276.5 C 2131.986328 271.361328 2130.780273 267.043823 2128.370117 263.551636 C 2125.958008 260.059937 2122.820801 258.314087 2118.956543 258.314087 C 2115.198242 258.314087 2112.140625 259.943481 2109.783203 263.205811 C 2107.424805 266.466553 2106.246094 270.545532 2106.246094 275.4375 C 2106.246094 280.579224 2107.45166 284.894165 2109.862305 288.386353 C 2112.273926 291.880859 2115.411133 293.626709 2119.275391 293.626709 C 2123.033691 293.626709 2126.091797 291.994507 2128.449707 288.731689 C 2130.807129 285.471191 2131.986328 281.394531 2131.986328 276.5 Z"/>
                <path id="path104" fill="#231916" stroke="none" d="M 2192.450684 250.814087 L 2192.450684 263.259644 C 2189.826172 262.194824 2184.08252 261.663818 2181.387695 261.663818 C 2177.740234 261.663818 2174.960449 262.810303 2173.049805 265.103516 C 2171.649902 266.782959 2171.070801 269.025024 2171.072754 271.211548 C 2171.084473 284.134277 2171.189453 294.175781 2171.390625 301.337036 L 2157.243652 301.337036 C 2157.846191 290.665771 2158.146973 281.943848 2158.146973 275.171265 C 2158.146973 266.733887 2157.26123 257.249512 2155.48877 249.696167 L 2169.049316 249.696167 C 2169.651855 253.597046 2169.954102 255.884644 2169.954102 256.557983 L 2170.804199 256.557983 C 2174.066406 251.558716 2178.409668 249.05835 2183.833984 249.05835 C 2186.386719 249.05835 2189.258789 249.645508 2192.450684 250.814087 Z"/>
                <path id="path105" fill="#231916" stroke="none" d="M 2414.886719 290.167847 L 2414.886719 300.325317 C 2411.65918 302.028442 2406.37793 302.879639 2400.84668 302.879639 C 2391.699219 302.879639 2384.670898 300.325317 2379.759766 295.219971 C 2374.850098 290.117188 2372.394531 283.981689 2372.394531 276.820435 C 2372.394531 269.374146 2374.965332 262.878784 2380.106934 257.327637 C 2385.246582 251.780029 2392.285156 249.004883 2401.21875 249.004883 C 2405.580078 249.004883 2409.462402 249.50293 2412.866699 250.494141 L 2412.866699 261.343384 C 2409.603027 259.996338 2404.144043 259.322388 2400.102051 259.322388 C 2395.812012 259.322388 2392.425781 260.839844 2389.944336 263.869507 C 2387.462891 266.901733 2386.222656 270.63501 2386.222656 275.064697 C 2386.222656 279.887939 2387.692383 283.964111 2390.635742 287.295898 C 2393.579102 290.630371 2397.743652 292.297363 2403.134277 292.297363 C 2406.289063 292.297363 2410.207031 291.587891 2414.886719 290.167847 Z"/>
                <path id="path106" fill="#231916" stroke="none" d="M 2613.821777 290.167847 L 2613.821777 300.325317 C 2610.594238 302.028442 2605.313477 302.879639 2599.782227 302.879639 C 2590.634277 302.879639 2583.605469 300.325317 2578.694824 295.219971 C 2573.785156 290.117188 2571.330566 283.981689 2571.330566 276.820435 C 2571.330566 269.374146 2573.900391 262.878784 2579.041992 257.327637 C 2584.181641 251.780029 2591.219727 249.004883 2600.154297 249.004883 C 2604.514648 249.004883 2608.397461 249.50293 2611.801758 250.494141 L 2611.801758 261.343384 C 2608.538086 259.996338 2603.07959 259.322388 2599.037109 259.322388 C 2594.74707 259.322388 2591.36084 260.839844 2588.879883 263.869507 C 2586.397949 266.901733 2585.157715 270.63501 2585.157715 275.064697 C 2585.157715 279.887939 2586.62793 283.964111 2589.570313 287.295898 C 2592.513672 290.630371 2596.678711 292.297363 2602.069336 292.297363 C 2605.224609 292.297363 2609.141602 291.587891 2613.821777 290.167847 Z"/>
            </g>
            <g id="g13">
                <path id="path107" fill="#231916" stroke="none" d="M 2253.0625 90.544189 L 2253.0625 80.888428 L 2089.707031 80.888428 L 2089.707031 90.544189 L 2253.0625 90.544189 Z"/>
                <path id="path108" fill="#231916" stroke="none" d="M 2219.344238 111.868896 L 2219.344238 102.213379 L 2119.020996 102.213379 L 2119.020996 111.868896 L 2219.344238 111.868896 Z"/>
                <path id="path109" fill="#231916" stroke="none" d="M 2256.283691 151.296997 L 2256.283691 139.015015 L 2086.486328 139.015015 L 2086.486328 151.296997 L 2256.283691 151.296997 Z"/>
                <path id="path110" fill="#231916" stroke="none" d="M 2240.693359 25.305542 L 2240.693359 15.650024 L 2197.407227 15.650024 L 2197.407227 25.305542 L 2240.693359 25.305542 Z"/>
                <path id="path111" fill="#231916" stroke="none" d="M 2145.363281 18.49707 L 2145.363281 8.842041 L 2096.587402 15.650024 L 2096.587402 25.305542 L 2145.363281 18.49707 Z"/>
                <path id="path112" fill="#231916" stroke="none" d="M 2102.076172 68.797607 L 2102.076172 59.14209 L 2145.363281 59.14209 L 2145.363281 68.797607 L 2102.076172 68.797607 Z"/>
                <path id="path113" fill="#231916" stroke="none" d="M 2102.076172 47.051514 L 2102.076172 37.39624 L 2145.363281 37.39624 L 2145.363281 47.051514 L 2102.076172 47.051514 Z"/>
                <path id="path114" fill="#231916" stroke="none" d="M 2115.899414 81.342896 L 2096.587402 81.342896 L 2096.587402 15.650024 L 2115.899414 15.650024 L 2115.899414 81.342896 Z"/>
                <path id="path115" fill="#231916" stroke="none" d="M 2103.765137 115.332642 L 2084.454102 115.332642 L 2084.454102 80.888428 L 2103.765137 80.888428 L 2103.765137 115.332642 Z"/>
                <path id="path116" fill="#231916" stroke="none" d="M 2258.31543 115.332642 L 2239.004395 115.332642 L 2239.004395 80.888428 L 2258.31543 80.888428 L 2258.31543 115.332642 Z"/>
                <path id="path117" fill="#231916" stroke="none" d="M 2240.693359 68.797607 L 2240.693359 59.14209 L 2197.407227 59.14209 L 2197.407227 68.797607 L 2240.693359 68.797607 Z"/>
                <path id="path118" fill="#231916" stroke="none" d="M 2240.693359 47.051514 L 2240.693359 37.39624 L 2197.407227 37.39624 L 2197.407227 47.051514 L 2240.693359 47.051514 Z"/>
                <path id="path119" fill="#231916" stroke="none" d="M 2226.870605 83.429321 L 2246.181641 83.429321 L 2246.181641 15.650024 L 2226.870605 15.650024 L 2226.870605 83.429321 Z"/>
                <path id="path120" fill="#231916" stroke="none" d="M 2163.909668 161.160034 L 2163.909668 126.783813 L 2183.220703 126.783813 L 2183.220703 162.717041 C 2183.220703 172.570313 2175.233398 180.55835 2165.379883 180.55835 L 2140.42041 180.55835 L 2140.42041 168.56665 L 2156.50293 168.56665 C 2160.59375 168.56665 2163.909668 165.250977 2163.909668 161.160034 Z"/>
                <path id="path121" fill="#231916" stroke="none" d="M 2219.344238 111.868896 L 2200.033203 111.868896 L 2163.909668 126.783813 L 2183.220703 126.783813 L 2219.344238 111.868896 Z"/>
                <g id="g14">
                    <path id="path122" fill="#231916" stroke="none" d="M 2155.861816 40.167603 L 2169.361816 40.167603 C 2169.559082 35.655762 2170.464355 31.734985 2171.796387 28.335083 C 2168.035645 25.506592 2163.9375 23.89917 2160.381836 23.012817 C 2158.003418 26.944336 2155.861816 35.094238 2155.861816 40.167603 Z"/>
                    <path id="path123" fill="#231916" stroke="none" d="M 2191.10791 8.842041 C 2186.487793 8.842041 2178.845703 9.984863 2171.92627 13.326294 C 2174.271484 14.417847 2176.585449 15.760864 2178.817871 17.352905 C 2184.688477 11.177124 2191.10791 8.842041 2191.10791 8.842041 Z"/>
                    <path id="path124" fill="#231916" stroke="none" d="M 2153.150391 76.191284 L 2168.116699 76.191284 C 2168.645996 72.135742 2169.708496 68.620117 2171.057617 65.495117 C 2166.655273 62.843384 2161.798828 61.560913 2157.980469 60.971436 C 2155.556152 65.258789 2153.150391 71.849854 2153.150391 76.191284 Z"/>
                    <path id="path125" fill="#231916" stroke="none" d="M 2192.88916 45.092529 L 2189.258789 45.092529 C 2183.540527 45.627441 2176.04834 47.213745 2169.515137 50.574585 C 2172.458984 51.623901 2175.40332 52.967163 2178.201172 54.690918 C 2184.180664 48.469116 2190.828125 45.802612 2192.88916 45.092529 Z"/>
                    <path id="path126" fill="#231916" stroke="none" d="M 2171.92627 13.326294 C 2164.859863 10.036743 2157.655762 8.866211 2152.303223 8.874512 L 2152.303223 21.893311 C 2153.787109 21.922607 2156.771973 22.112549 2160.381836 23.012817 C 2160.526855 22.773315 2160.669434 22.494507 2160.81543 22.28833 C 2163.652344 18.290039 2167.652832 15.390869 2171.92627 13.326294 Z"/>
                    <path id="path127" fill="#231916" stroke="none" d="M 2178.817871 17.352905 C 2176.142578 20.167603 2173.583984 23.775024 2171.796387 28.335083 C 2175.365234 31.017578 2178.620605 34.783203 2180.758789 40.167603 L 2194.42041 40.167603 C 2191.474609 29.467041 2185.586914 22.180542 2178.817871 17.352905 Z"/>
                    <path id="path128" fill="#231916" stroke="none" d="M 2178.817871 17.352905 C 2176.585449 15.760864 2174.271484 14.417847 2171.92627 13.326294 C 2167.652832 15.390869 2163.652344 18.290039 2160.81543 22.28833 C 2160.669434 22.494507 2160.526855 22.773315 2160.381836 23.012817 C 2163.9375 23.89917 2168.035645 25.506592 2171.796387 28.335083 C 2173.583984 23.775024 2176.142578 20.167603 2178.817871 17.352905 Z"/>
                    <path id="path129" fill="#231916" stroke="none" d="M 2169.515137 50.574585 C 2163.399902 48.394531 2157.324219 47.531128 2152.583496 47.459961 L 2152.583496 60.466553 C 2153.78418 60.499878 2155.68457 60.615845 2157.980469 60.971436 C 2158.562988 59.942383 2159.145508 59.00708 2159.696777 58.312012 C 2162.285645 55.050659 2165.737305 52.518066 2169.515137 50.574585 Z"/>
                    <path id="path130" fill="#231916" stroke="none" d="M 2178.201172 54.690918 C 2175.495605 57.506592 2172.967773 61.068237 2171.057617 65.495117 C 2174.919922 67.822021 2178.408203 71.220459 2180.51416 76.191284 L 2194.203125 76.191284 C 2191.515137 65.951538 2185.362305 59.102905 2178.201172 54.690918 Z"/>
                    <path id="path131" fill="#231916" stroke="none" d="M 2169.515137 50.574585 C 2165.737305 52.518066 2162.285645 55.050659 2159.696777 58.312012 C 2159.145508 59.00708 2158.562988 59.942383 2157.980469 60.971436 C 2161.798828 61.560913 2166.655273 62.843384 2171.057617 65.495117 C 2172.967773 61.068237 2175.495605 57.506592 2178.201172 54.690918 C 2175.40332 52.967163 2172.458984 51.623901 2169.515137 50.574585 Z"/>
                </g>
            </g>
            <g id="g15">
                <path id="path132" fill="#231916" stroke="none" d="M 1265.306152 64.311768 L 1245.995117 64.311768 L 1245.995117 24.122437 L 1265.306152 24.122437 L 1265.306152 64.311768 Z"/>
                <path id="path133" fill="#231916" stroke="none" d="M 1245.995117 33.778442 L 1245.995117 24.122437 L 1403.571289 24.122437 L 1403.571289 33.778442 L 1245.995117 33.778442 Z"/>
                <path id="path134" fill="#231916" stroke="none" d="M 1271.999023 63.039673 L 1271.999023 53.383667 L 1376.880859 53.383667 L 1376.880859 63.039673 L 1271.999023 63.039673 Z"/>
                <path id="path135" fill="#231916" stroke="none" d="M 1403.571289 64.311768 L 1384.260254 64.311768 L 1384.260254 24.122437 L 1403.571289 24.122437 L 1403.571289 64.311768 Z"/>
                <path id="path136" fill="#231916" stroke="none" d="M 1381.191895 123.111328 L 1361.880371 123.111328 L 1361.880371 95.642944 L 1381.191895 95.642944 L 1381.191895 123.111328 Z"/>
                <path id="path137" fill="#231916" stroke="none" d="M 1406.640625 176.405884 C 1406.640625 176.405884 1381.191895 158.60376 1381.191895 123.426392 L 1371.535645 109.205444 L 1361.880371 123.426392 C 1361.880371 137.722046 1366.943848 149.805542 1372.553223 158.805908 C 1379.317383 169.658447 1392.408203 176.405884 1406.639648 176.405884 L 1406.640625 176.405884 Z"/>
                <path id="path138" fill="#231916" stroke="none" d="M 1331.500977 63.039673 C 1331.500977 63.039673 1306.563965 101.713867 1251.320801 101.713867 L 1251.320801 90.013428 C 1289.10498 90.013428 1314.953613 63.039673 1314.953613 63.039673"/>
                <path id="path139" fill="#231916" stroke="none" d="M 1334.805176 126.165771 C 1334.805176 126.165771 1301.063477 165.395874 1242.600586 165.395874 L 1242.600586 153.012451 C 1282.587402 153.012451 1317.292969 126.165771 1317.292969 126.165771"/>
                <path id="path140" fill="#231916" stroke="none" d="M 1384.739746 78.684326 C 1384.739746 78.684326 1365.445313 95.118042 1339.057617 103.483643 C 1341.035645 105.839111 1342.903809 108.312012 1344.700684 110.791382 C 1345.3125 111.308838 1345.891602 111.909546 1346.428711 112.601807 C 1382.263184 101.889648 1402.252441 78.684326 1402.252441 78.684326 L 1384.739746 78.684326 Z"/>
                <path id="path141" fill="#231916" stroke="none" d="M 1347.740234 8.842041 C 1347.740234 8.842041 1328.983887 12.541748 1328.983887 33.239502 L 1306.617676 23.979248 C 1306.617676 23.979248 1319.562012 8.842041 1347.740234 8.842041 Z"/>
                <g id="g16">
                    <path id="path142" fill="#231916" stroke="none" d="M 1246.454102 123.111328 L 1246.454102 134.795898 C 1291.462402 134.795898 1317.557129 112.145752 1327.192871 101.713867 L 1308.257324 101.713867 C 1294.80957 111.652466 1273.283203 123.320313 1246.454102 123.111328 Z"/>
                </g>
                <path id="path143" fill="#231916" stroke="none" d="M 1321.860352 71.204956 L 1307.856445 82.937378 C 1307.856445 82.937378 1335.031738 102.766968 1335.031738 122.647095 C 1335.031738 136.098755 1327.291504 149.857422 1319.106445 160.647949 C 1315.039063 166.011353 1308.683105 169.135132 1301.952148 169.135132 L 1290.794434 169.135132 L 1290.794434 181.126709 L 1300.191895 181.126709 L 1318.702637 181.126709 C 1325.603027 181.126709 1332.11084 177.854492 1336.138184 172.250366 C 1343.631348 161.822876 1354.342773 143.303223 1354.342773 122.647095 C 1354.342773 88.869995 1321.860352 71.204956 1321.860352 71.204956 Z"/>
            </g>
        </g>
    </g>
</svg>
